# xmcd
#
# Track frame offsets: 
#        150
#        20837
#        43410
#        67832
#        88737
#        109110
#        131412
#        158482
#        177825
#        202697
#        226150
#
# Disc length: 3273 seconds
#
# Revision: 1
# Processed by: cddbd v1.5.2PL0 Copyright (c) Steve Scherf et al.
# Submitted via: ExactAudioCopy v1.0b3
#
DISCID=850cc70b
DTITLE=Ngoc Ha - Tinh Hoai Huong
DYEAR=2004
DGENRE=Blues
TTITLE0=Tinh hoai huong
TTITLE1=Dua em tim dong hoa vang
TTITLE2=Ao tu than
TTITLE3=Mong ban dau
TTITLE4=Giac mo hoi huong
TTITLE5=Ve lai pho xua
TTITLE6=Bai hat ru mua dong
TTITLE7=Tinh khuc mua dong
TTITLE8=Noi buon xa xu
TTITLE9=Lo cung dan
TTITLE10=May trang qua cau
EXTD=
EXTT0=
EXTT1=
EXTT2=
EXTT3=
EXTT4=
EXTT5=
EXTT6=
EXTT7=
EXTT8=
EXTT9=
EXTT10=
PLAYORDER=
